<svg width="581" height="969" viewBox="0 0 581 969" fill="none" xmlns="http://www.w3.org/2000/svg">
<path d="M484.571 0C461.097 0 408.884 6.11671 355.248 171.41C194.767 93.5998 159.485 124.183 141.985 141.964C125.482 158.465 92.7599 199.718 171.435 354.058C4.55264 410.815 0 468.141 0 484.5C0 499.721 6.11761 558.754 170.866 613.52C93.0445 771.843 130.319 815.513 141.701 827.178C152.513 837.989 198.609 875.258 353.683 797.59C409.737 964.306 461.95 969 484.429 969C507.903 969 560.116 962.883 613.61 798.443C771.103 876.823 811.223 843.11 827.015 827.32C843.518 810.819 876.24 769.567 797.565 615.085C964.305 558.327 969 501.001 969 484.642C969 469.422 962.882 410.388 798.134 355.622C875.956 197.442 838.681 153.629 827.015 142.107C816.202 131.296 769.964 93.8843 614.464 171.979C556.133 3.12948 509.468 0 484.571 0ZM184.809 184.781C190.073 179.518 207.572 157.043 343.297 211.097C342.586 213.373 341.874 215.649 341.305 218.21C321.814 288.623 279.276 322.052 219.38 339.122C216.392 339.975 213.405 340.829 210.559 341.682C153.225 209.817 178.122 191.325 184.809 184.781ZM588.286 228.452C589.709 227.741 591.131 227.029 592.554 226.46C593.408 228.594 594.119 230.586 594.973 232.577C622.715 302.99 667.103 350.217 738.95 376.533C740.515 377.244 741.937 377.671 743.502 378.24C742.506 380.374 741.653 382.223 740.657 384.357C709.073 453.347 707.081 519.351 740.657 588.057C741.368 589.48 742.08 590.902 742.791 592.325C740.657 593.178 738.523 593.889 736.389 594.743C665.538 621.059 617.309 666.152 592.412 738.557C591.985 740.121 591.273 741.544 590.847 743.109C588.713 742.113 586.721 741.259 584.445 740.264C515.301 709.253 450.142 707.973 380.714 740.264C379.291 740.975 377.869 741.686 376.446 742.255C375.592 740.121 374.881 738.13 374.027 735.854C346.996 665.156 301.897 618.214 230.05 591.898C228.485 591.187 227.063 590.76 225.498 590.191C226.351 588.057 227.347 586.208 228.343 584.074C259.927 515.083 261.35 449.507 228.343 380.374C227.632 378.951 226.92 377.529 226.209 376.106C228.343 375.253 230.477 374.542 232.611 373.688C303.604 347.372 351.122 301.852 376.731 229.732C377.157 228.31 377.869 226.887 378.296 225.465C380.43 226.318 382.421 227.314 384.698 228.167C453.841 258.751 518.858 260.742 588.286 228.452ZM60.607 484.5C60.607 475.965 56.3389 445.951 190.926 390.473C192.349 392.749 193.629 395.168 194.91 397.586C230.904 461.029 224.36 514.799 194.198 569.138C192.776 571.699 191.353 574.259 189.93 576.82C57.6193 523.049 60.607 492.181 60.607 484.5ZM184.809 784.219C178.691 778.102 154.505 760.036 210.417 625.469C212.978 626.18 215.539 626.891 218.242 627.602C288.666 647.091 321.957 689.623 339.171 749.51C340.025 752.355 340.879 755.2 341.59 758.045C209.99 813.806 190.215 789.766 184.809 784.219ZM484.571 908.402C477.458 908.402 448.435 915.657 390.815 777.96C392.949 776.822 395.368 775.399 397.644 774.261C461.097 738.272 514.875 744.816 569.222 774.972C572.067 776.537 574.77 778.102 577.616 779.524C525.972 912.1 491.4 908.402 484.571 908.402ZM784.334 784.219C779.212 789.34 763.847 814.802 625.845 758.329C626.556 755.911 627.268 753.351 627.979 750.79C647.47 680.377 690.009 646.948 749.904 629.878C753.034 629.025 756.022 628.029 759.152 627.176C816.202 757.76 789.313 779.382 784.334 784.219ZM908.535 484.5C908.535 493.035 912.803 523.049 778.216 578.526C776.793 576.251 775.655 573.975 774.375 571.414C738.381 507.971 744.925 454.201 775.086 399.862C776.509 397.159 777.932 394.599 779.354 392.038C911.523 445.808 908.535 476.819 908.535 484.5ZM784.334 184.781C790.451 190.898 814.637 208.964 758.725 343.531C756.164 342.82 753.603 342.109 750.9 341.398C680.477 321.909 648.181 278.95 629.971 219.49C629.117 216.645 628.264 213.942 627.41 211.097C759.152 155.336 778.927 179.234 784.334 184.781ZM577.9 191.183C575.766 192.321 573.632 193.459 571.498 194.739C508.046 230.728 454.694 223.331 399.921 194.028C397.075 192.605 394.514 191.183 391.669 189.76C444.593 55.9038 475.181 60.4558 484.571 60.4558C491.827 60.5981 520.139 56.8996 577.9 191.183Z" fill="white" fill-opacity="0.05"/>
</svg>
