<svg width="62" height="62" viewBox="0 0 62 62" fill="none" xmlns="http://www.w3.org/2000/svg">
<path d="M31.0045 0C29.5026 0 26.1618 0.391426 22.73 10.969C12.4619 5.98972 10.2044 7.94685 9.08471 9.08471C8.02878 10.1407 5.9351 12.7805 10.969 22.6572C0.291294 26.2892 0 29.9577 0 31.0046C0 31.9786 0.391426 35.7563 10.9326 39.2609C5.95331 49.3925 8.33828 52.187 9.06651 52.9335C9.75833 53.6253 12.7077 56.0103 22.6299 51.0401C26.2164 61.7087 29.5572 62.0091 30.9954 62.0091C32.4974 62.0091 35.8382 61.6177 39.2609 51.0947C49.3378 56.1104 51.9049 53.953 52.9153 52.9426C53.9712 51.8867 56.0649 49.2468 51.031 39.361C61.6996 35.729 62 32.0605 62 31.0137C62 30.0396 61.6086 26.2619 51.0674 22.7573C56.0467 12.6349 53.6617 9.83115 52.9153 9.09382C52.2235 8.402 49.265 6.00793 39.3155 11.0054C35.5833 0.200265 32.5976 0 31.0045 0ZM11.8247 11.8247C12.1615 11.4879 13.2812 10.0496 21.9653 13.5087C21.9198 13.6544 21.8743 13.8 21.8379 13.9639C20.5908 18.4698 17.869 20.609 14.0367 21.7014C13.8455 21.756 13.6544 21.8106 13.4723 21.8652C9.80385 13.4268 11.3969 12.2434 11.8247 11.8247ZM37.6406 14.6193C37.7316 14.5738 37.8226 14.5283 37.9137 14.4919C37.9683 14.6284 38.0138 14.7558 38.0684 14.8833C39.8435 19.3892 42.6836 22.4114 47.2806 24.0954C47.3807 24.1409 47.4717 24.1683 47.5719 24.2047C47.5081 24.3412 47.4535 24.4596 47.3898 24.5961C45.369 29.011 45.2415 33.2348 47.3898 37.6315C47.4353 37.7225 47.4808 37.8135 47.5263 37.9046C47.3898 37.9592 47.2533 38.0047 47.1167 38.0593C42.5835 39.7434 39.4976 42.629 37.9046 47.2624C37.8773 47.3625 37.8317 47.4535 37.8044 47.5537C37.6679 47.4899 37.5404 47.4353 37.3948 47.3716C32.9708 45.3872 28.8016 45.3052 24.3594 47.3716C24.2684 47.4171 24.1774 47.4626 24.0863 47.499C24.0317 47.3625 23.9862 47.2351 23.9316 47.0894C22.202 42.5653 19.3164 39.5613 14.7194 37.8773C14.6193 37.8317 14.5283 37.8044 14.4281 37.768C14.4827 37.6315 14.5465 37.5131 14.6102 37.3766C16.631 32.9617 16.7221 28.7652 14.6102 24.3412C14.5647 24.2502 14.5192 24.1592 14.4736 24.0681C14.6102 24.0135 14.7467 23.968 14.8833 23.9134C19.4256 22.2293 22.466 19.3164 24.1045 14.7012C24.1318 14.6102 24.1774 14.5192 24.2047 14.4281C24.3412 14.4827 24.4687 14.5465 24.6143 14.6011C29.0383 16.5582 33.1984 16.6857 37.6406 14.6193ZM3.87784 31.0046C3.87784 30.4584 3.60476 28.5377 12.2161 24.9875C12.3071 25.1332 12.3891 25.2879 12.471 25.4427C14.774 29.5026 14.3553 32.9435 12.4255 36.4208C12.3345 36.5846 12.2434 36.7485 12.1524 36.9123C3.68668 33.4714 3.87784 31.4961 3.87784 31.0046ZM11.8247 50.1844C11.4333 49.793 9.88577 48.6369 13.4632 40.0255C13.6271 40.0711 13.7909 40.1166 13.9639 40.1621C18.4698 41.4092 20.5999 44.131 21.7014 47.9633C21.756 48.1454 21.8106 48.3274 21.8561 48.5095C13.4359 52.0778 12.1706 50.5394 11.8247 50.1844ZM31.0045 58.1313C30.5494 58.1313 28.6924 58.5955 25.0057 49.7839C25.1423 49.7111 25.297 49.62 25.4427 49.5472C29.5026 47.2442 32.9435 47.6629 36.4208 49.5927C36.6028 49.6928 36.7758 49.793 36.9579 49.884C33.6535 58.3679 31.4415 58.1313 31.0045 58.1313ZM50.1844 50.1844C49.8567 50.5121 48.8736 52.1415 40.0438 48.5277C40.0893 48.3729 40.1348 48.2091 40.1803 48.0452C41.4274 43.5393 44.1492 41.4001 47.9815 40.3077C48.1818 40.2531 48.3729 40.1894 48.5732 40.1348C52.2235 48.4913 50.503 49.8749 50.1844 50.1844ZM58.1313 31.0046C58.1313 31.5507 58.4043 33.4714 49.793 37.0216C49.702 36.8759 49.6291 36.7303 49.5472 36.5664C47.2442 32.5065 47.6629 29.0656 49.5927 25.5883C49.6837 25.4154 49.7748 25.2515 49.8658 25.0877C58.3224 28.5286 58.1313 30.513 58.1313 31.0046ZM50.1844 11.8247C50.5758 12.2161 52.1233 13.3722 48.5459 21.9836C48.382 21.938 48.2182 21.8925 48.0452 21.847C43.5393 20.5999 41.4729 17.8508 40.3077 14.0458C40.2531 13.8637 40.1985 13.6908 40.1439 13.5087C48.5732 9.94039 49.8385 11.4697 50.1844 11.8247ZM36.9761 12.2343C36.8395 12.3071 36.703 12.38 36.5664 12.4619C32.5065 14.7649 29.0929 14.2916 25.5883 12.4164C25.4063 12.3254 25.2424 12.2343 25.0603 12.1433C28.4466 3.57745 30.4038 3.86874 31.0045 3.86874C31.4688 3.87784 33.2803 3.64117 36.9761 12.2343Z" fill="url(#paint0_linear)"/>
<defs>
<linearGradient id="paint0_linear" x1="30.9994" y1="62.0039" x2="30.9994" y2="0" gradientUnits="userSpaceOnUse">
<stop stop-color="#007DCD"/>
<stop offset="0.5028" stop-color="#46DF83"/>
<stop offset="1" stop-color="#FFCF71"/>
</linearGradient>
</defs>
</svg>
